<svg width="68" height="68" viewBox="0 0 68 68" fill="none" xmlns="http://www.w3.org/2000/svg">
<path d="M36 15.4003L34.693 16.8731C35.035 17.2891 35.5068 17.5241 36 17.5241C36.4932 17.5241 36.965 17.2891 37.307 16.8731L36 15.4003ZM29.7746 51.7081C26.1089 48.3246 22.1004 45.0204 18.9205 40.8279C15.8028 36.7172 13.6279 31.9209 13.6279 25.6982H10C10 33.2465 12.6859 39.005 16.2079 43.6484C19.6677 48.2099 24.0781 51.859 27.5286 55.044L29.7746 51.7081ZM13.6279 25.6982C13.6279 19.6073 16.5674 14.4994 20.5798 12.352C24.4779 10.2657 29.7156 10.8182 34.693 16.8731L37.307 13.9274C31.401 6.74301 24.5457 5.55894 19.0716 8.48868C13.7119 11.3572 10 18.018 10 25.6982H13.6279ZM27.5286 55.044C28.7675 56.1875 30.0975 57.4069 31.4453 58.3289C32.7927 59.2507 34.3302 60 36 60V55.7522C35.2512 55.7522 34.3701 55.4104 33.2757 54.6614C32.1817 53.913 31.0469 52.8825 29.7746 51.7081L27.5286 55.044ZM44.4714 55.044C47.9218 51.859 52.3324 48.2099 55.7922 43.6484C59.3141 39.005 62 33.2465 62 25.6982H58.3721C58.3721 31.9209 56.1973 36.7172 53.0795 40.8279C49.8995 45.0204 45.8911 48.3246 42.2255 51.7081L44.4714 55.044ZM62 25.6982C62 18.018 58.2882 11.3572 52.9283 8.48868C47.4543 5.55894 40.599 6.74301 34.693 13.9274L37.307 16.8731C42.2843 10.8182 47.522 10.2657 51.4201 12.352C55.4325 14.4994 58.3721 19.6073 58.3721 25.6982H62ZM42.2255 51.7081C40.9531 52.8825 39.8183 53.913 38.7243 54.6614C37.6299 55.4104 36.7488 55.7522 36 55.7522V60C37.6698 60 39.2073 59.2507 40.5547 58.3289C41.9026 57.4069 43.2324 56.1875 44.4714 55.044L42.2255 51.7081Z" fill="#83CBCB"/>
</svg>
