<svg width="55" height="60" viewBox="0 0 55 60" fill="none" xmlns="http://www.w3.org/2000/svg">
<g clip-path="url(#clip0_105_887)">
<path d="M6.11166 51.3792C6.67602 51.3792 7.25415 51.4617 7.83686 51.6315C8.42417 51.8013 8.95641 52.0536 9.43818 52.3932C9.91995 52.7327 10.3145 53.1594 10.6266 53.6779C10.934 54.1964 11.09 54.8112 11.09 55.5178C11.09 56.2244 10.9386 56.8392 10.6266 57.3577C10.3191 57.8762 9.92454 58.3075 9.43818 58.6424C8.95182 58.9774 8.41958 59.2297 7.83686 59.3812C7.24956 59.5372 6.67602 59.6106 6.11166 59.6106C5.5473 59.6106 4.97376 59.5326 4.38646 59.3812C3.79916 59.2297 3.26691 58.982 2.78514 58.6424C2.30337 58.3029 1.90877 57.8762 1.60136 57.3577C1.29394 56.8392 1.13794 56.2244 1.13794 55.5178C1.13794 54.8112 1.29394 54.1964 1.60136 53.6779C1.90877 53.1594 2.30337 52.7327 2.78514 52.3932C3.26691 52.0536 3.80374 51.8013 4.38646 51.6315C4.97376 51.4617 5.5473 51.3792 6.11166 51.3792ZM6.11166 52.7969C5.72165 52.7969 5.33165 52.8566 4.94164 52.9805C4.55164 53.1044 4.19834 53.2787 3.88633 53.5127C3.57433 53.7421 3.31738 54.0266 3.12468 54.3661C2.92738 54.7057 2.83102 55.0911 2.83102 55.5224C2.83102 55.9537 2.92738 56.3391 3.12468 56.6786C3.31738 57.0182 3.57433 57.3026 3.88633 57.5321C4.19834 57.7615 4.55164 57.9404 4.94164 58.0643C5.33165 58.1882 5.72165 58.2478 6.11166 58.2478C6.50167 58.2478 6.89167 58.1882 7.28168 58.0643C7.67168 57.9404 8.02498 57.7661 8.33699 57.5321C8.64899 57.3026 8.90594 57.0182 9.09865 56.6786C9.29136 56.3391 9.3923 55.9537 9.3923 55.5224C9.3923 55.0911 9.29594 54.7057 9.09865 54.3661C8.90135 54.0266 8.64899 53.7421 8.33699 53.5127C8.02498 53.2833 7.67168 53.1044 7.28168 52.9805C6.89167 52.8566 6.50167 52.7969 6.11166 52.7969Z" fill="#161722"/>
<path d="M13.2739 59.5737V59.2984C13.6548 59.2984 13.8429 59.2067 13.8429 59.0231V52.0306C13.8429 51.847 13.6548 51.7553 13.2739 51.7553V51.48H18.6973C19.6838 51.48 20.4592 51.6635 21.0236 52.026C21.5879 52.3885 21.8724 53.0079 21.8724 53.8843C21.8724 54.7606 21.5879 55.3755 21.0236 55.7425C20.4592 56.105 19.6838 56.2885 18.6973 56.2885H15.6002V59.0323C15.6002 59.2159 15.7654 59.3076 16.0911 59.3076V59.5829H13.2739V59.5737ZM18.8808 54.8616C19.2204 54.8616 19.5094 54.7927 19.7526 54.6597C19.9958 54.5266 20.1151 54.2651 20.1151 53.8751C20.1151 53.4851 19.9958 53.2235 19.7526 53.0905C19.5094 52.9574 19.2204 52.8886 18.8808 52.8886H15.6002V54.8616H18.8808Z" fill="#161722"/>
<path d="M28.3741 51.3792C28.9385 51.3792 29.5166 51.4617 30.0993 51.6315C30.6866 51.8013 31.2189 52.0536 31.7006 52.3932C32.1824 52.7327 32.577 53.1594 32.889 53.6779C33.1964 54.1964 33.3524 54.8112 33.3524 55.5178C33.3524 56.2244 33.201 56.8392 32.889 57.3577C32.5816 57.8762 32.187 58.3075 31.7006 58.6424C31.2143 58.9774 30.682 59.2297 30.0993 59.3812C29.512 59.5372 28.9385 59.6106 28.3741 59.6106C27.8098 59.6106 27.2362 59.5326 26.6489 59.3812C26.0616 59.2297 25.5294 58.982 25.0476 58.6424C24.5658 58.3029 24.1712 57.8762 23.8638 57.3577C23.5564 56.8392 23.4004 56.2244 23.4004 55.5178C23.4004 54.8112 23.5564 54.1964 23.8638 53.6779C24.1712 53.1594 24.5658 52.7327 25.0476 52.3932C25.5294 52.0536 26.0662 51.8013 26.6489 51.6315C27.2362 51.4617 27.8098 51.3792 28.3741 51.3792ZM28.3741 52.7969C27.9841 52.7969 27.5941 52.8566 27.2041 52.9805C26.8141 53.1044 26.4608 53.2787 26.1488 53.5127C25.8368 53.7421 25.5798 54.0266 25.3871 54.3661C25.1898 54.7057 25.0935 55.0911 25.0935 55.5224C25.0935 55.9537 25.1898 56.3391 25.3871 56.6786C25.5798 57.0182 25.8368 57.3026 26.1488 57.5321C26.4608 57.7615 26.8141 57.9404 27.2041 58.0643C27.5941 58.1882 27.9841 58.2478 28.3741 58.2478C28.7641 58.2478 29.1541 58.1882 29.5441 58.0643C29.9341 57.9404 30.2874 57.7661 30.5994 57.5321C30.9114 57.3026 31.1684 57.0182 31.3611 56.6786C31.5538 56.3391 31.6547 55.9537 31.6547 55.5224C31.6547 55.0911 31.5584 54.7057 31.3611 54.3661C31.1638 54.0266 30.9114 53.7421 30.5994 53.5127C30.2874 53.2833 29.9341 53.1044 29.5441 52.9805C29.1541 52.8566 28.7641 52.7969 28.3741 52.7969Z" fill="#161722"/>
<path d="M37.5873 59.0188C37.5873 59.1105 37.6195 59.1793 37.6791 59.2252C37.7387 59.2711 37.8122 59.2941 37.8947 59.2941V59.5694H35.4905V59.2941C35.7153 59.2941 35.83 59.2023 35.83 59.0188V52.0262C35.83 51.8426 35.7153 51.7509 35.4905 51.7509V51.4756H37.8947V51.7509C37.8122 51.7509 37.7387 51.7738 37.6791 51.8197C37.6195 51.8656 37.5873 51.9344 37.5873 52.0262V54.9535L40.7762 52.4437C40.9184 52.3198 41.0332 52.2189 41.1157 52.1455C41.1983 52.0675 41.2396 52.0032 41.2396 51.9528C41.2396 51.8794 41.2167 51.8289 41.1708 51.7968C41.1249 51.7646 41.0699 51.7509 41.0102 51.7509V51.4756H44.245V51.7509C44.0614 51.7509 43.8733 51.8289 43.6898 51.9803L40.1476 54.7975L43.3824 58.5416C43.5154 58.6976 43.6714 58.849 43.8504 58.9958C44.0293 59.1426 44.2083 59.2436 44.3826 59.2941V59.5694H41.5333V59.2941C41.6663 59.2941 41.7352 59.2574 41.7352 59.1839C41.7352 59.1335 41.6617 59.0188 41.5195 58.8444L38.8858 55.8069L37.5919 56.8072V59.0096L37.5873 59.0188Z" fill="#161722"/>
<path d="M44.9653 59.2986C45.0984 59.2802 45.2039 59.2114 45.2819 59.0967C45.3599 58.982 45.4333 58.8535 45.5068 58.7113L48.3561 52.719C48.4295 52.5859 48.4937 52.462 48.5488 52.3473C48.6039 52.2326 48.6314 52.1363 48.6314 52.0537C48.6314 51.9527 48.5947 51.8793 48.5259 51.838C48.4524 51.7967 48.3744 51.7646 48.2964 51.7462V51.4709H50.898V51.7462C50.8246 51.7646 50.7558 51.7967 50.6824 51.8288C50.6089 51.8655 50.5768 51.939 50.5768 52.0537C50.5768 52.1363 50.5952 52.2188 50.6319 52.3014C50.6686 52.384 50.7237 52.4896 50.7925 52.6272L53.9951 58.8994C54.0456 59.0141 54.1144 59.0967 54.2016 59.1472C54.2888 59.1977 54.3897 59.2481 54.5044 59.3032V59.5785H51.7927V59.3032C51.834 59.3032 51.8845 59.2894 51.9487 59.2573C52.013 59.2252 52.0405 59.1793 52.0405 59.1197C52.0405 59.0187 51.9992 58.8856 51.9166 58.7205L51.3293 57.578H47.5715L47.0163 58.67C46.9154 58.8856 46.8603 59.0417 46.8603 59.1334C46.8603 59.2481 46.9567 59.3032 47.154 59.3032V59.5785H44.9653V59.3032V59.2986ZM50.7741 56.4309L49.4802 53.5632L48.0303 56.4309H50.7741Z" fill="#161722"/>
<path d="M0.688232 31.241C0.688232 30.1215 0.688232 29.002 0.688232 27.8824C0.688232 13.0714 12.6912 1.06836 27.5023 1.06836C42.3133 1.06836 54.3163 13.0714 54.3163 27.8824V39.6331C51.4395 37.605 48.5626 35.5724 45.6857 33.5444C43.9146 34.7236 42.1436 35.8982 40.3679 37.0774C36.2063 34.4391 32.0493 31.8054 27.8877 29.1671C29.3927 31.5485 30.8976 33.9298 32.4072 36.3111C31.7465 37.3573 31.0857 38.4034 30.4204 39.4541C31.9208 41.7161 33.4212 43.9782 34.9216 46.2402C27.5023 42.698 20.0876 39.1559 12.6683 35.6137C8.67647 36.9948 4.68464 38.3759 0.692821 39.7569C0.692821 36.9214 0.692821 34.0812 0.692821 31.2456L0.688232 31.241Z" fill="#83CBCB" stroke="#161722" stroke-width="1.37649" stroke-miterlimit="10"/>
<path d="M12.7003 35.141C20.1196 38.6832 27.5343 42.2253 34.9536 45.7675C33.4532 43.5055 31.9529 41.2434 30.4525 38.9814L32.4392 35.8384C30.6865 33.347 28.9337 30.8555 27.181 28.3641C31.5858 31.1125 35.9951 33.8609 40.3999 36.6047C42.171 35.4255 43.9421 34.2509 45.7178 33.0717C48.5946 35.0309 51.4761 36.9901 54.3529 38.9493C51.3889 36.3798 48.4294 33.8058 45.4654 31.2364L40.3999 34.2968C36.0731 31.4153 31.7464 28.5384 27.4196 25.657C23.5195 28.5706 19.6195 31.4887 15.7148 34.4023C14.7192 33.9159 13.7235 33.425 12.7279 32.9386C8.72686 34.9896 4.72585 37.0406 0.724854 39.0915C4.71668 37.7701 8.71309 36.4487 12.7049 35.1272L12.7003 35.141Z" fill="#161722"/>
<path d="M28.1769 13.8147H26.6582V26.3362H28.1769V13.8147Z" fill="#161722"/>
<path d="M31.095 17.9533V16.4346H23.7491V17.9533H31.095Z" fill="#161722"/>
</g>
<defs>
<clipPath id="clip0_105_887">
<rect width="55" height="60" fill="white"/>
</clipPath>
</defs>
</svg>
