<svg width="286" height="72" viewBox="0 0 286 72" fill="none" xmlns="http://www.w3.org/2000/svg">
<g clip-path="url(#clip0_105_888)">
<path d="M7.33394 61.655C8.01118 61.655 8.70493 61.7541 9.40419 61.9579C10.1089 62.1616 10.7476 62.4644 11.3258 62.8718C11.9039 63.2793 12.3774 63.7913 12.7518 64.4135C13.1207 65.0357 13.3079 65.7735 13.3079 66.6214C13.3079 67.4693 13.1262 68.2071 12.7518 68.8293C12.3829 69.4515 11.9094 69.969 11.3258 70.371C10.7421 70.7729 10.1034 71.0757 9.40419 71.2574C8.69942 71.4446 8.01118 71.5327 7.33394 71.5327C6.65671 71.5327 5.96846 71.4391 5.2637 71.2574C4.55894 71.0757 3.92025 70.7784 3.34212 70.371C2.76399 69.9635 2.29048 69.4515 1.92158 68.8293C1.55268 68.2071 1.36548 67.4693 1.36548 66.6214C1.36548 65.7735 1.55268 65.0357 1.92158 64.4135C2.29048 63.7913 2.76399 63.2793 3.34212 62.8718C3.92025 62.4644 4.56444 62.1616 5.2637 61.9579C5.96846 61.7541 6.65671 61.655 7.33394 61.655ZM7.33394 63.3564C6.86594 63.3564 6.39793 63.4279 5.92992 63.5766C5.46192 63.7253 5.03796 63.9345 4.66355 64.2153C4.28915 64.4906 3.98081 64.832 3.74956 65.2394C3.5128 65.6469 3.39718 66.1094 3.39718 66.6269C3.39718 67.1445 3.5128 67.607 3.74956 68.0144C3.98081 68.4219 4.28915 68.7632 4.66355 69.0385C5.03796 69.3138 5.46192 69.5286 5.92992 69.6772C6.39793 69.8259 6.86594 69.8975 7.33394 69.8975C7.80195 69.8975 8.26996 69.8259 8.73796 69.6772C9.20597 69.5286 9.62993 69.3193 10.0043 69.0385C10.3787 68.7632 10.6871 68.4219 10.9183 68.0144C11.1496 67.607 11.2707 67.1445 11.2707 66.6269C11.2707 66.1094 11.1551 65.6469 10.9183 65.2394C10.6816 64.832 10.3787 64.4906 10.0043 64.2153C9.62993 63.94 9.20597 63.7253 8.73796 63.5766C8.26996 63.4279 7.80195 63.3564 7.33394 63.3564Z" fill="#161722"/>
<path d="M15.9285 71.4884V71.158C16.3855 71.158 16.6112 71.0479 16.6112 70.8277V62.4366C16.6112 62.2164 16.3855 62.1062 15.9285 62.1062V61.7759H22.4365C23.6203 61.7759 24.5508 61.9961 25.228 62.4311C25.9053 62.8661 26.2466 63.6094 26.2466 64.661C26.2466 65.7126 25.9053 66.4504 25.228 66.8909C24.5508 67.3259 23.6203 67.5461 22.4365 67.5461H18.72V70.8387C18.72 71.0589 18.9182 71.169 19.3091 71.169V71.4994H15.9285V71.4884ZM22.6568 65.8338C23.0642 65.8338 23.4111 65.7512 23.7029 65.5915C23.9947 65.4318 24.1379 65.118 24.1379 64.65C24.1379 64.182 23.9947 63.8681 23.7029 63.7085C23.4111 63.5488 23.0642 63.4662 22.6568 63.4662H18.72V65.8338H22.6568Z" fill="#161722"/>
<path d="M34.049 61.655C34.7263 61.655 35.42 61.7541 36.1193 61.9579C36.824 62.1616 37.4627 62.4644 38.0409 62.8718C38.619 63.2793 39.0925 63.7913 39.4669 64.4135C39.8358 65.0357 40.023 65.7735 40.023 66.6214C40.023 67.4693 39.8413 68.2071 39.4669 68.8293C39.098 69.4515 38.6245 69.969 38.0409 70.371C37.4572 70.7729 36.8185 71.0757 36.1193 71.2574C35.4145 71.4446 34.7263 71.5327 34.049 71.5327C33.3718 71.5327 32.6836 71.4391 31.9788 71.2574C31.274 71.0757 30.6353 70.7784 30.0572 70.371C29.4791 69.9635 29.0056 69.4515 28.6367 68.8293C28.2678 68.2071 28.0806 67.4693 28.0806 66.6214C28.0806 65.7735 28.2678 65.0357 28.6367 64.4135C29.0056 63.7913 29.4791 63.2793 30.0572 62.8718C30.6353 62.4644 31.2795 62.1616 31.9788 61.9579C32.6836 61.7541 33.3718 61.655 34.049 61.655ZM34.049 63.3564C33.581 63.3564 33.113 63.4279 32.645 63.5766C32.177 63.7253 31.753 63.9345 31.3786 64.2153C31.0042 64.4906 30.6959 64.832 30.4646 65.2394C30.2279 65.6469 30.1123 66.1094 30.1123 66.6269C30.1123 67.1445 30.2279 67.607 30.4646 68.0144C30.6959 68.4219 31.0042 68.7632 31.3786 69.0385C31.753 69.3138 32.177 69.5286 32.645 69.6772C33.113 69.8259 33.581 69.8975 34.049 69.8975C34.517 69.8975 34.985 69.8259 35.4531 69.6772C35.9211 69.5286 36.345 69.3193 36.7194 69.0385C37.0938 68.7632 37.4022 68.4219 37.6334 68.0144C37.8647 67.607 37.9858 67.1445 37.9858 66.6269C37.9858 66.1094 37.8702 65.6469 37.6334 65.2394C37.3967 64.832 37.0938 64.4906 36.7194 64.2153C36.345 63.94 35.9211 63.7253 35.4531 63.5766C34.985 63.4279 34.517 63.3564 34.049 63.3564Z" fill="#161722"/>
<path d="M45.1048 70.8226C45.1048 70.9327 45.1434 71.0153 45.215 71.0703C45.2865 71.1254 45.3746 71.1529 45.4737 71.1529V71.4833H42.5886V71.1529C42.8584 71.1529 42.9961 71.0428 42.9961 70.8226V62.4315C42.9961 62.2112 42.8584 62.1011 42.5886 62.1011V61.7708H45.4737V62.1011C45.3746 62.1011 45.2865 62.1286 45.215 62.1837C45.1434 62.2388 45.1048 62.3213 45.1048 62.4315V65.9443L48.9315 62.9325C49.1022 62.7838 49.2398 62.6627 49.3389 62.5746C49.438 62.481 49.4876 62.4039 49.4876 62.3434C49.4876 62.2553 49.4601 62.1947 49.405 62.1562C49.35 62.1176 49.2839 62.1011 49.2123 62.1011V61.7708H53.094V62.1011C52.8738 62.1011 52.648 62.1947 52.4278 62.3764L48.1772 65.7571L52.0589 70.2499C52.2186 70.4371 52.4058 70.6188 52.6205 70.795C52.8352 70.9712 53.05 71.0923 53.2592 71.1529V71.4833H49.84V71.1529C49.9997 71.1529 50.0822 71.1089 50.0822 71.0208C50.0822 70.9602 49.9941 70.8226 49.8235 70.6133L46.663 66.9684L45.1104 68.1687V70.8115L45.1048 70.8226Z" fill="#161722"/>
<path d="M53.9585 71.1583C54.1182 71.1363 54.2448 71.0537 54.3384 70.9161C54.432 70.7784 54.5201 70.6242 54.6082 70.4535L58.0274 63.2628C58.1155 63.1031 58.1926 62.9544 58.2587 62.8168C58.3247 62.6791 58.3578 62.5635 58.3578 62.4644C58.3578 62.3433 58.3137 62.2552 58.2311 62.2056C58.143 62.1561 58.0494 62.1175 57.9558 62.0955V61.7651H61.0777V62.0955C60.9896 62.1175 60.907 62.1561 60.8189 62.1946C60.7308 62.2386 60.6923 62.3267 60.6923 62.4644C60.6923 62.5635 60.7143 62.6626 60.7584 62.7617C60.8024 62.8608 60.8685 62.9875 60.9511 63.1526L64.7942 70.6793C64.8548 70.8169 64.9374 70.9161 65.042 70.9766C65.1466 71.0372 65.2677 71.0977 65.4054 71.1638V71.4942H62.1514V71.1638C62.2009 71.1638 62.2615 71.1473 62.3386 71.1088C62.4157 71.0702 62.4487 71.0152 62.4487 70.9436C62.4487 70.8225 62.3991 70.6628 62.3 70.4646L61.5953 69.0936H57.0859L56.4197 70.404C56.2985 70.6628 56.2325 70.85 56.2325 70.9601C56.2325 71.0977 56.3481 71.1638 56.5848 71.1638V71.4942H53.9585V71.1638V71.1583ZM60.929 67.7171L59.3764 64.2759L57.6365 67.7171H60.929Z" fill="#161722"/>
<path d="M0.825928 37.4892C0.825928 36.1458 0.825928 34.8023 0.825928 33.4588C0.825928 15.6856 15.2295 1.28198 33.0028 1.28198C50.776 1.28198 65.1796 15.6856 65.1796 33.4588V47.5596C61.7274 45.126 58.2752 42.6868 54.8229 40.2532C52.6976 41.6682 50.5723 43.0778 48.4415 44.4928C43.4476 41.3269 38.4592 38.1664 33.4653 35.0005C35.2712 37.8581 37.0772 40.7157 38.8887 43.5733C38.0958 44.8287 37.3029 46.084 36.5046 47.3449C38.305 50.0593 40.1055 52.7738 41.9059 55.4882C33.0028 51.2376 24.1051 46.987 15.202 42.7364C10.4118 44.3937 5.62162 46.051 0.831434 47.7083C0.831434 44.3056 0.831434 40.8974 0.831434 37.4947L0.825928 37.4892Z" fill="#83CBCB" stroke="#161722" stroke-width="1.65179" stroke-miterlimit="10"/>
<path d="M15.2404 42.1692C24.1436 46.4198 33.0412 50.6704 41.9444 54.921C40.1439 52.2065 38.3435 49.4921 36.543 46.7776L38.9271 43.0061C36.8238 40.0163 34.7205 37.0266 32.6173 34.0368C37.903 37.3349 43.1942 40.633 48.4799 43.9256C50.6053 42.5105 52.7306 41.101 54.8614 39.686C58.3136 42.037 61.7713 44.3881 65.2236 46.7391C61.6667 43.6558 58.1154 40.5669 54.5585 37.4836L48.4799 41.1561C43.2878 37.6983 38.0957 34.2461 32.9036 30.7883C28.2235 34.2846 23.5434 37.7864 18.8579 41.2827C17.6631 40.6991 16.4683 40.1099 15.2735 39.5263C10.4723 41.9875 5.67107 44.4486 0.869873 46.9098C5.66006 45.3241 10.4558 43.7384 15.2459 42.1526L15.2404 42.1692Z" fill="#161722"/>
<path d="M33.8125 16.5776H31.99V31.6034H33.8125V16.5776Z" fill="#161722"/>
<path d="M37.3142 21.5439V19.7214H28.4992V21.5439H37.3142Z" fill="#161722"/>
</g>
<path d="M88.5 26.7L88.7 26.8C88.7 26.92 88.7267 27.0267 88.78 27.12C88.8733 27.28 89.0533 27.44 89.32 27.6C89.6 27.7467 89.9133 27.88 90.26 28C90.62 28.12 90.9933 28.22 91.38 28.3C91.7667 28.3667 92.1133 28.4 92.42 28.4C92.6467 28.4 92.94 28.3867 93.3 28.36C93.66 28.32 94.0133 28.2467 94.36 28.14C94.7067 28.0333 95.0067 27.8867 95.26 27.7C95.5133 27.5133 95.64 27.2667 95.64 26.96C95.64 26.6533 95.52 26.4267 95.28 26.28C95.0533 26.1333 94.7467 26.0267 94.36 25.96C93.9867 25.8933 93.5533 25.8533 93.06 25.84C92.58 25.8133 92.0867 25.78 91.58 25.74C91.0733 25.7 90.5733 25.6333 90.08 25.54C89.6 25.4467 89.1667 25.2933 88.78 25.08C88.4067 24.8533 88.1 24.5533 87.86 24.18C87.6333 23.7933 87.52 23.2933 87.52 22.68C87.52 22.2667 87.6133 21.86 87.8 21.46C88 21.06 88.3 20.7067 88.7 20.4C89.1 20.0933 89.6067 19.8467 90.22 19.66C90.8333 19.46 91.5533 19.36 92.38 19.36C93.0867 19.36 93.7 19.4133 94.22 19.52C94.74 19.6267 95.1867 19.74 95.56 19.86C95.9467 19.98 96.2667 20.0933 96.52 20.2C96.7867 20.3067 97.0067 20.36 97.18 20.36C97.3667 20.36 97.5 20.32 97.58 20.24L97.82 20.4L96.44 22.9L96.24 22.82C96.2133 22.6333 96.16 22.48 96.08 22.36C95.9733 22.2 95.7933 22.0467 95.54 21.9C95.3 21.74 95.0133 21.6 94.68 21.48C94.3467 21.36 93.9867 21.2667 93.6 21.2C93.2133 21.12 92.8267 21.08 92.44 21.08C92.1467 21.08 91.84 21.1067 91.52 21.16C91.2133 21.2 90.9333 21.2667 90.68 21.36C90.4267 21.4533 90.2133 21.58 90.04 21.74C89.88 21.8867 89.8 22.0733 89.8 22.3C89.8 22.62 89.9133 22.86 90.14 23.02C90.38 23.18 90.6867 23.3 91.06 23.38C91.4467 23.46 91.88 23.5133 92.36 23.54C92.8533 23.5667 93.3533 23.6 93.86 23.64C94.3667 23.68 94.86 23.7533 95.34 23.86C95.8333 23.9533 96.2667 24.1133 96.64 24.34C97.0267 24.5533 97.3333 24.8467 97.56 25.22C97.8 25.5933 97.92 26.08 97.92 26.68C97.92 27.3733 97.7333 27.94 97.36 28.38C97 28.82 96.5467 29.1667 96 29.42C95.4533 29.6733 94.86 29.8467 94.22 29.94C93.5933 30.02 93.0067 30.06 92.46 30.06C91.7 30.06 91.06 30.02 90.54 29.94C90.0333 29.8467 89.6067 29.74 89.26 29.62C88.9267 29.4867 88.66 29.3733 88.46 29.28C88.26 29.1733 88.0867 29.12 87.94 29.12C87.8467 29.12 87.76 29.1733 87.68 29.28L87.4 29.12L88.5 26.7ZM108.14 23.88C108.58 23.88 108.953 23.7933 109.26 23.62C109.58 23.4467 109.74 23.1067 109.74 22.6C109.74 22.0933 109.58 21.7533 109.26 21.58C108.953 21.4067 108.58 21.32 108.14 21.32H103.88V23.88H108.14ZM100.86 30V29.64C101.353 29.64 101.6 29.52 101.6 29.28V20.2C101.6 19.96 101.353 19.84 100.86 19.84V19.48H107.9C109.18 19.48 110.187 19.72 110.92 20.2C111.653 20.6667 112.02 21.4667 112.02 22.6C112.02 23.7333 111.653 24.54 110.92 25.02C110.187 25.4867 109.18 25.72 107.9 25.72H103.88V29.28C103.88 29.52 104.093 29.64 104.52 29.64V30H100.86ZM120.46 21.2C119.953 21.2 119.446 21.28 118.94 21.44C118.433 21.6 117.973 21.8333 117.56 22.14C117.16 22.4333 116.833 22.8 116.58 23.24C116.326 23.68 116.2 24.18 116.2 24.74C116.2 25.3 116.326 25.8 116.58 26.24C116.833 26.68 117.16 27.0533 117.56 27.36C117.973 27.6533 118.433 27.88 118.94 28.04C119.446 28.2 119.953 28.28 120.46 28.28C120.966 28.28 121.473 28.2 121.98 28.04C122.486 27.88 122.94 27.6533 123.34 27.36C123.753 27.0533 124.086 26.68 124.34 26.24C124.593 25.8 124.72 25.3 124.72 24.74C124.72 24.18 124.593 23.68 124.34 23.24C124.086 22.8 123.753 22.4333 123.34 22.14C122.94 21.8333 122.486 21.6 121.98 21.44C121.473 21.28 120.966 21.2 120.46 21.2ZM120.46 19.36C121.193 19.36 121.94 19.4733 122.7 19.7C123.46 19.9133 124.153 20.24 124.78 20.68C125.406 21.12 125.92 21.68 126.32 22.36C126.72 23.0267 126.92 23.82 126.92 24.74C126.92 25.66 126.72 26.46 126.32 27.14C125.92 27.8067 125.406 28.36 124.78 28.8C124.153 29.24 123.46 29.56 122.7 29.76C121.94 29.96 121.193 30.06 120.46 30.06C119.726 30.06 118.98 29.96 118.22 29.76C117.46 29.56 116.766 29.24 116.14 28.8C115.513 28.36 115 27.8067 114.6 27.14C114.2 26.46 114 25.66 114 24.74C114 23.82 114.2 23.0267 114.6 22.36C115 21.68 115.513 21.12 116.14 20.68C116.766 20.24 117.46 19.9133 118.22 19.7C118.98 19.4733 119.726 19.36 120.46 19.36ZM139.726 30.38C139.726 30.18 139.659 30.0667 139.526 30.04C139.406 30.0133 139.246 30 139.046 30H129.526V29.64C129.926 29.64 130.126 29.52 130.126 29.28V26.22L128.806 26.78V25.02L130.126 24.46V20.2C130.126 19.96 129.926 19.84 129.526 19.84V19.48H132.966V19.84C132.593 19.84 132.406 19.96 132.406 20.2V23.52L135.766 22.12V23.86L132.406 25.26V28.16H139.046C139.246 28.16 139.406 28.1133 139.526 28.02C139.659 27.9267 139.726 27.8 139.726 27.64H140.086V30.38H139.726ZM152.073 21.64C152.073 21.4933 152.013 21.3867 151.893 21.32C151.786 21.24 151.593 21.2 151.313 21.2H144.833V23.68H148.753C149.019 23.68 149.226 23.6467 149.373 23.58C149.519 23.5 149.593 23.3067 149.593 23H149.953V26.12H149.593C149.593 25.8133 149.519 25.62 149.373 25.54C149.226 25.4467 149.019 25.4 148.753 25.4H144.833V28.16H151.513C151.713 28.16 151.873 28.1133 151.993 28.02C152.126 27.9267 152.193 27.8 152.193 27.64H152.553V30.38H152.193C152.193 30.18 152.126 30.0667 151.993 30.04C151.873 30.0133 151.713 30 151.513 30H142.193V29.64C142.286 29.64 142.366 29.6133 142.433 29.56C142.513 29.4933 142.553 29.4 142.553 29.28V20.2C142.553 20.08 142.513 19.9933 142.433 19.94C142.366 19.8733 142.286 19.84 142.193 19.84V19.48H151.313C151.593 19.48 151.786 19.44 151.893 19.36C152.013 19.2667 152.073 19.1467 152.073 19H152.433V21.64H152.073ZM166.633 28.56C166.593 28.56 166.553 28.56 166.513 28.56C166.486 28.5467 166.453 28.54 166.413 28.54C166.333 28.54 166.139 28.62 165.833 28.78C165.539 28.94 165.159 29.12 164.693 29.32C164.239 29.52 163.719 29.6933 163.133 29.84C162.546 29.9867 161.933 30.06 161.293 30.06C160.453 30.06 159.646 29.9533 158.873 29.74C158.099 29.5267 157.413 29.2 156.813 28.76C156.226 28.3067 155.759 27.7467 155.413 27.08C155.066 26.4133 154.893 25.6333 154.893 24.74C154.893 23.86 155.066 23.0867 155.413 22.42C155.759 21.74 156.226 21.1733 156.813 20.72C157.413 20.2667 158.099 19.9267 158.873 19.7C159.646 19.4733 160.453 19.36 161.293 19.36C161.973 19.36 162.586 19.4133 163.133 19.52C163.693 19.6267 164.179 19.74 164.593 19.86C165.006 19.98 165.333 20.0933 165.572 20.2C165.813 20.3067 165.959 20.36 166.013 20.36C166.079 20.36 166.133 20.3267 166.173 20.26C166.226 20.1933 166.266 20.14 166.293 20.1L166.593 20.34L165.033 22.76L164.832 22.62C164.832 22.58 164.826 22.54 164.813 22.5C164.813 22.46 164.806 22.4133 164.793 22.36C164.766 22.2133 164.633 22.0667 164.393 21.92C164.153 21.76 163.853 21.62 163.493 21.5C163.146 21.38 162.773 21.28 162.373 21.2C161.986 21.12 161.626 21.08 161.293 21.08C160.733 21.08 160.193 21.16 159.673 21.32C159.166 21.48 158.719 21.7133 158.333 22.02C157.959 22.3267 157.659 22.7067 157.433 23.16C157.206 23.6 157.093 24.1067 157.093 24.68C157.093 25.2533 157.206 25.7667 157.433 26.22C157.659 26.66 157.959 27.0333 158.333 27.34C158.719 27.6467 159.166 27.88 159.673 28.04C160.193 28.2 160.733 28.28 161.293 28.28C161.719 28.28 162.166 28.2333 162.633 28.14C163.099 28.0333 163.526 27.9067 163.912 27.76C164.299 27.6 164.619 27.4267 164.873 27.24C165.139 27.04 165.273 26.8533 165.273 26.68C165.273 26.5867 165.246 26.5067 165.193 26.44L165.473 26.28L166.793 28.4L166.633 28.56ZM175.686 21.2H170.246C169.846 21.2 169.646 21.3867 169.646 21.76H169.286V19H169.646C169.646 19.32 169.846 19.48 170.246 19.48H179.466V20.04L173.106 28.16H178.546C178.919 28.16 179.106 28.0133 179.106 27.72H179.466V30.38H179.106C179.106 30.1267 178.919 30 178.546 30H169.226V29.44L175.686 21.2ZM182.293 29.64C182.546 29.64 182.673 29.52 182.673 29.28V20.2C182.673 19.96 182.546 19.84 182.293 19.84V19.48H185.713V19.84C185.606 19.84 185.553 19.9067 185.553 20.04C185.553 20.1467 185.686 20.3333 185.953 20.6L191.693 26.56V20.2C191.693 19.96 191.519 19.84 191.173 19.84V19.48H194.193V19.84C193.939 19.84 193.813 19.96 193.813 20.2V29.28C193.813 29.52 193.939 29.64 194.193 29.64V30H190.953V29.64C191.126 29.64 191.213 29.58 191.213 29.46C191.213 29.3667 191.106 29.2133 190.893 29L184.793 22.64V29.28C184.793 29.52 184.946 29.64 185.253 29.64V30H182.293V29.64ZM203.819 21.2C203.312 21.2 202.806 21.28 202.299 21.44C201.792 21.6 201.332 21.8333 200.919 22.14C200.519 22.4333 200.192 22.8 199.939 23.24C199.686 23.68 199.559 24.18 199.559 24.74C199.559 25.3 199.686 25.8 199.939 26.24C200.192 26.68 200.519 27.0533 200.919 27.36C201.332 27.6533 201.792 27.88 202.299 28.04C202.806 28.2 203.312 28.28 203.819 28.28C204.326 28.28 204.832 28.2 205.339 28.04C205.846 27.88 206.299 27.6533 206.699 27.36C207.112 27.0533 207.446 26.68 207.699 26.24C207.952 25.8 208.079 25.3 208.079 24.74C208.079 24.18 207.952 23.68 207.699 23.24C207.446 22.8 207.112 22.4333 206.699 22.14C206.299 21.8333 205.846 21.6 205.339 21.44C204.832 21.28 204.326 21.2 203.819 21.2ZM203.819 19.36C204.552 19.36 205.299 19.4733 206.059 19.7C206.819 19.9133 207.512 20.24 208.139 20.68C208.766 21.12 209.279 21.68 209.679 22.36C210.079 23.0267 210.279 23.82 210.279 24.74C210.279 25.66 210.079 26.46 209.679 27.14C209.279 27.8067 208.766 28.36 208.139 28.8C207.512 29.24 206.819 29.56 206.059 29.76C205.299 29.96 204.552 30.06 203.819 30.06C203.086 30.06 202.339 29.96 201.579 29.76C200.819 29.56 200.126 29.24 199.499 28.8C198.872 28.36 198.359 27.8067 197.959 27.14C197.559 26.46 197.359 25.66 197.359 24.74C197.359 23.82 197.559 23.0267 197.959 22.36C198.359 21.68 198.872 21.12 199.499 20.68C200.126 20.24 200.819 19.9133 201.579 19.7C202.339 19.4733 203.086 19.36 203.819 19.36ZM214.105 26.7L214.305 26.8C214.305 26.92 214.332 27.0267 214.385 27.12C214.479 27.28 214.659 27.44 214.925 27.6C215.205 27.7467 215.519 27.88 215.865 28C216.225 28.12 216.599 28.22 216.985 28.3C217.372 28.3667 217.719 28.4 218.025 28.4C218.252 28.4 218.545 28.3867 218.905 28.36C219.265 28.32 219.619 28.2467 219.965 28.14C220.312 28.0333 220.612 27.8867 220.865 27.7C221.119 27.5133 221.245 27.2667 221.245 26.96C221.245 26.6533 221.125 26.4267 220.885 26.28C220.659 26.1333 220.352 26.0267 219.965 25.96C219.592 25.8933 219.159 25.8533 218.665 25.84C218.185 25.8133 217.692 25.78 217.185 25.74C216.679 25.7 216.179 25.6333 215.685 25.54C215.205 25.4467 214.772 25.2933 214.385 25.08C214.012 24.8533 213.705 24.5533 213.465 24.18C213.239 23.7933 213.125 23.2933 213.125 22.68C213.125 22.2667 213.219 21.86 213.405 21.46C213.605 21.06 213.905 20.7067 214.305 20.4C214.705 20.0933 215.212 19.8467 215.825 19.66C216.439 19.46 217.159 19.36 217.985 19.36C218.692 19.36 219.305 19.4133 219.825 19.52C220.345 19.6267 220.792 19.74 221.165 19.86C221.552 19.98 221.872 20.0933 222.125 20.2C222.392 20.3067 222.612 20.36 222.785 20.36C222.972 20.36 223.105 20.32 223.185 20.24L223.425 20.4L222.045 22.9L221.845 22.82C221.819 22.6333 221.765 22.48 221.685 22.36C221.579 22.2 221.399 22.0467 221.145 21.9C220.905 21.74 220.619 21.6 220.285 21.48C219.952 21.36 219.592 21.2667 219.205 21.2C218.819 21.12 218.432 21.08 218.045 21.08C217.752 21.08 217.445 21.1067 217.125 21.16C216.819 21.2 216.539 21.2667 216.285 21.36C216.032 21.4533 215.819 21.58 215.645 21.74C215.485 21.8867 215.405 22.0733 215.405 22.3C215.405 22.62 215.519 22.86 215.745 23.02C215.985 23.18 216.292 23.3 216.665 23.38C217.052 23.46 217.485 23.5133 217.965 23.54C218.459 23.5667 218.959 23.6 219.465 23.64C219.972 23.68 220.465 23.7533 220.945 23.86C221.439 23.9533 221.872 24.1133 222.245 24.34C222.632 24.5533 222.939 24.8467 223.165 25.22C223.405 25.5933 223.525 26.08 223.525 26.68C223.525 27.3733 223.339 27.94 222.965 28.38C222.605 28.82 222.152 29.1667 221.605 29.42C221.059 29.6733 220.465 29.8467 219.825 29.94C219.199 30.02 218.612 30.06 218.065 30.06C217.305 30.06 216.665 30.02 216.145 29.94C215.639 29.8467 215.212 29.74 214.865 29.62C214.532 29.4867 214.265 29.3733 214.065 29.28C213.865 29.1733 213.692 29.12 213.545 29.12C213.452 29.12 213.365 29.1733 213.285 29.28L213.005 29.12L214.105 26.7ZM218.785 18.44H217.105L218.925 15.56H221.625L218.785 18.44ZM237.765 28.56C237.725 28.56 237.685 28.56 237.645 28.56C237.619 28.5467 237.585 28.54 237.545 28.54C237.465 28.54 237.272 28.62 236.965 28.78C236.672 28.94 236.292 29.12 235.825 29.32C235.372 29.52 234.852 29.6933 234.265 29.84C233.679 29.9867 233.065 30.06 232.425 30.06C231.585 30.06 230.779 29.9533 230.005 29.74C229.232 29.5267 228.545 29.2 227.945 28.76C227.359 28.3067 226.892 27.7467 226.545 27.08C226.199 26.4133 226.025 25.6333 226.025 24.74C226.025 23.86 226.199 23.0867 226.545 22.42C226.892 21.74 227.359 21.1733 227.945 20.72C228.545 20.2667 229.232 19.9267 230.005 19.7C230.779 19.4733 231.585 19.36 232.425 19.36C233.105 19.36 233.719 19.4133 234.265 19.52C234.825 19.6267 235.312 19.74 235.725 19.86C236.139 19.98 236.465 20.0933 236.705 20.2C236.945 20.3067 237.092 20.36 237.145 20.36C237.212 20.36 237.265 20.3267 237.305 20.26C237.359 20.1933 237.399 20.14 237.425 20.1L237.725 20.34L236.165 22.76L235.965 22.62C235.965 22.58 235.959 22.54 235.945 22.5C235.945 22.46 235.939 22.4133 235.925 22.36C235.899 22.2133 235.765 22.0667 235.525 21.92C235.285 21.76 234.985 21.62 234.625 21.5C234.279 21.38 233.905 21.28 233.505 21.2C233.119 21.12 232.759 21.08 232.425 21.08C231.865 21.08 231.325 21.16 230.805 21.32C230.299 21.48 229.852 21.7133 229.465 22.02C229.092 22.3267 228.792 22.7067 228.565 23.16C228.339 23.6 228.225 24.1067 228.225 24.68C228.225 25.2533 228.339 25.7667 228.565 26.22C228.792 26.66 229.092 27.0333 229.465 27.34C229.852 27.6467 230.299 27.88 230.805 28.04C231.325 28.2 231.865 28.28 232.425 28.28C232.852 28.28 233.299 28.2333 233.765 28.14C234.232 28.0333 234.659 27.9067 235.045 27.76C235.432 27.6 235.752 27.4267 236.005 27.24C236.272 27.04 236.405 26.8533 236.405 26.68C236.405 26.5867 236.379 26.5067 236.325 26.44L236.605 26.28L237.925 28.4L237.765 28.56ZM232.645 18.74H230.965L232.785 15.86H235.485L232.645 18.74ZM98.82 48.56C98.78 48.56 98.74 48.56 98.7 48.56C98.6733 48.5467 98.64 48.54 98.6 48.54C98.52 48.54 98.3267 48.62 98.02 48.78C97.7267 48.94 97.3467 49.12 96.88 49.32C96.4267 49.52 95.9067 49.6933 95.32 49.84C94.7333 49.9867 94.12 50.06 93.48 50.06C92.64 50.06 91.8333 49.9533 91.06 49.74C90.2867 49.5267 89.6 49.2 89 48.76C88.4133 48.3067 87.9467 47.7467 87.6 47.08C87.2533 46.4133 87.08 45.6333 87.08 44.74C87.08 43.86 87.2533 43.0867 87.6 42.42C87.9467 41.74 88.4133 41.1733 89 40.72C89.6 40.2667 90.2867 39.9267 91.06 39.7C91.8333 39.4733 92.64 39.36 93.48 39.36C94.16 39.36 94.7733 39.4133 95.32 39.52C95.88 39.6267 96.3667 39.74 96.78 39.86C97.1933 39.98 97.52 40.0933 97.76 40.2C98 40.3067 98.1467 40.36 98.2 40.36C98.2667 40.36 98.32 40.3267 98.36 40.26C98.4133 40.1933 98.4533 40.14 98.48 40.1L98.78 40.34L97.22 42.76L97.02 42.62C97.02 42.58 97.0133 42.54 97 42.5C97 42.46 96.9933 42.4133 96.98 42.36C96.9533 42.2133 96.82 42.0667 96.58 41.92C96.34 41.76 96.04 41.62 95.68 41.5C95.3333 41.38 94.96 41.28 94.56 41.2C94.1733 41.12 93.8133 41.08 93.48 41.08C92.92 41.08 92.38 41.16 91.86 41.32C91.3533 41.48 90.9067 41.7133 90.52 42.02C90.1467 42.3267 89.8467 42.7067 89.62 43.16C89.3933 43.6 89.28 44.1067 89.28 44.68C89.28 45.2533 89.3933 45.7667 89.62 46.22C89.8467 46.66 90.1467 47.0333 90.52 47.34C90.9067 47.6467 91.3533 47.88 91.86 48.04C92.38 48.2 92.92 48.28 93.48 48.28C93.9067 48.28 94.3533 48.2333 94.82 48.14C95.2867 48.0333 95.7133 47.9067 96.1 47.76C96.4867 47.6 96.8067 47.4267 97.06 47.24C97.3267 47.04 97.46 46.8533 97.46 46.68C97.46 46.5867 97.4333 46.5067 97.38 46.44L97.66 46.28L98.98 48.4L98.82 48.56ZM111.434 40.2C111.434 39.96 111.287 39.84 110.994 39.84V39.48H114.074V39.84C113.98 39.84 113.894 39.8733 113.814 39.94C113.747 39.9933 113.714 40.08 113.714 40.2V49.28C113.714 49.4 113.747 49.4933 113.814 49.56C113.894 49.6133 113.98 49.64 114.074 49.64V50H110.994V49.64C111.287 49.64 111.434 49.52 111.434 49.28V45.52H104.994V49.28C104.994 49.4 105.027 49.4933 105.094 49.56C105.174 49.6133 105.26 49.64 105.354 49.64V50H102.334V49.64C102.587 49.64 102.714 49.52 102.714 49.28V40.2C102.714 39.96 102.587 39.84 102.334 39.84V39.48H105.354V39.84C105.26 39.84 105.174 39.8733 105.094 39.94C105.027 39.9933 104.994 40.08 104.994 40.2V43.6H111.434V40.2ZM123.92 44.16C124.4 44.16 124.8 44.1267 125.12 44.06C125.44 43.98 125.693 43.8733 125.88 43.74C126.067 43.6067 126.2 43.4533 126.28 43.28C126.36 43.0933 126.4 42.8933 126.4 42.68C126.4 42.4667 126.36 42.2733 126.28 42.1C126.2 41.9133 126.067 41.7533 125.88 41.62C125.693 41.4867 125.44 41.3867 125.12 41.32C124.8 41.24 124.4 41.2 123.92 41.2H120.46V44.16H123.92ZM124.44 39.48C125.08 39.48 125.66 39.54 126.18 39.66C126.7 39.7667 127.147 39.9467 127.52 40.2C127.893 40.44 128.18 40.76 128.38 41.16C128.58 41.5467 128.68 42.0267 128.68 42.6C128.68 43.48 128.42 44.1533 127.9 44.62C127.38 45.0867 126.68 45.4 125.8 45.56L128.46 49.36C128.553 49.4933 128.66 49.5733 128.78 49.6C128.913 49.6267 129.033 49.64 129.14 49.64V50H125.4V49.64C125.52 49.64 125.62 49.62 125.7 49.58C125.793 49.54 125.84 49.4867 125.84 49.42C125.84 49.3533 125.813 49.28 125.76 49.2C125.707 49.1067 125.627 48.9867 125.52 48.84L123.32 45.72H120.46V49.28C120.46 49.4 120.5 49.4933 120.58 49.56C120.673 49.6133 120.833 49.64 121.06 49.64V50H117.6V49.64C117.987 49.64 118.18 49.52 118.18 49.28V40.2C118.18 39.96 117.987 39.84 117.6 39.84V39.48H124.44ZM137.874 41.2H132.434C132.034 41.2 131.834 41.3867 131.834 41.76H131.474V39H131.834C131.834 39.32 132.034 39.48 132.434 39.48H141.654V40.04L135.294 48.16H140.734C141.107 48.16 141.294 48.0133 141.294 47.72H141.654V50.38H141.294C141.294 50.1267 141.107 50 140.734 50H131.414V49.44L137.874 41.2ZM154.26 41.64C154.26 41.4933 154.2 41.3867 154.08 41.32C153.973 41.24 153.78 41.2 153.5 41.2H147.02V43.68H150.94C151.207 43.68 151.413 43.6467 151.56 43.58C151.707 43.5 151.78 43.3067 151.78 43H152.14V46.12H151.78C151.78 45.8133 151.707 45.62 151.56 45.54C151.413 45.4467 151.207 45.4 150.94 45.4H147.02V48.16H153.7C153.9 48.16 154.06 48.1133 154.18 48.02C154.313 47.9267 154.38 47.8 154.38 47.64H154.74V50.38H154.38C154.38 50.18 154.313 50.0667 154.18 50.04C154.06 50.0133 153.9 50 153.7 50H144.38V49.64C144.473 49.64 144.553 49.6133 144.62 49.56C144.7 49.4933 144.74 49.4 144.74 49.28V40.2C144.74 40.08 144.7 39.9933 144.62 39.94C144.553 39.8733 144.473 39.84 144.38 39.84V39.48H153.5C153.78 39.48 153.973 39.44 154.08 39.36C154.2 39.2667 154.26 39.1467 154.26 39H154.62V41.64H154.26ZM158.5 46.7L158.7 46.8C158.7 46.92 158.727 47.0267 158.78 47.12C158.873 47.28 159.053 47.44 159.32 47.6C159.6 47.7467 159.913 47.88 160.26 48C160.62 48.12 160.993 48.22 161.38 48.3C161.767 48.3667 162.113 48.4 162.42 48.4C162.647 48.4 162.94 48.3867 163.3 48.36C163.66 48.32 164.013 48.2467 164.36 48.14C164.707 48.0333 165.007 47.8867 165.26 47.7C165.513 47.5133 165.64 47.2667 165.64 46.96C165.64 46.6533 165.52 46.4267 165.28 46.28C165.053 46.1333 164.747 46.0267 164.36 45.96C163.987 45.8933 163.553 45.8533 163.06 45.84C162.58 45.8133 162.087 45.78 161.58 45.74C161.073 45.7 160.573 45.6333 160.08 45.54C159.6 45.4467 159.167 45.2933 158.78 45.08C158.407 44.8533 158.1 44.5533 157.86 44.18C157.633 43.7933 157.52 43.2933 157.52 42.68C157.52 42.2667 157.613 41.86 157.8 41.46C158 41.06 158.3 40.7067 158.7 40.4C159.1 40.0933 159.607 39.8467 160.22 39.66C160.833 39.46 161.553 39.36 162.38 39.36C163.087 39.36 163.7 39.4133 164.22 39.52C164.74 39.6267 165.187 39.74 165.56 39.86C165.947 39.98 166.267 40.0933 166.52 40.2C166.787 40.3067 167.007 40.36 167.18 40.36C167.367 40.36 167.5 40.32 167.58 40.24L167.82 40.4L166.44 42.9L166.24 42.82C166.213 42.6333 166.16 42.48 166.08 42.36C165.973 42.2 165.793 42.0467 165.54 41.9C165.3 41.74 165.013 41.6 164.68 41.48C164.347 41.36 163.987 41.2667 163.6 41.2C163.213 41.12 162.827 41.08 162.44 41.08C162.147 41.08 161.84 41.1067 161.52 41.16C161.213 41.2 160.933 41.2667 160.68 41.36C160.427 41.4533 160.213 41.58 160.04 41.74C159.88 41.8867 159.8 42.0733 159.8 42.3C159.8 42.62 159.913 42.86 160.14 43.02C160.38 43.18 160.687 43.3 161.06 43.38C161.447 43.46 161.88 43.5133 162.36 43.54C162.853 43.5667 163.353 43.6 163.86 43.64C164.367 43.68 164.86 43.7533 165.34 43.86C165.833 43.9533 166.267 44.1133 166.64 44.34C167.027 44.5533 167.333 44.8467 167.56 45.22C167.8 45.5933 167.92 46.08 167.92 46.68C167.92 47.3733 167.733 47.94 167.36 48.38C167 48.82 166.547 49.1667 166 49.42C165.453 49.6733 164.86 49.8467 164.22 49.94C163.593 50.02 163.007 50.06 162.46 50.06C161.7 50.06 161.06 50.02 160.54 49.94C160.033 49.8467 159.607 49.74 159.26 49.62C158.927 49.4867 158.66 49.3733 158.46 49.28C158.26 49.1733 158.087 49.12 157.94 49.12C157.847 49.12 157.76 49.1733 157.68 49.28L157.4 49.12L158.5 46.7ZM163.18 38.44H161.5L163.32 35.56H166.02L163.18 38.44ZM182.16 48.56C182.12 48.56 182.08 48.56 182.04 48.56C182.013 48.5467 181.98 48.54 181.94 48.54C181.86 48.54 181.667 48.62 181.36 48.78C181.067 48.94 180.687 49.12 180.22 49.32C179.767 49.52 179.247 49.6933 178.66 49.84C178.073 49.9867 177.46 50.06 176.82 50.06C175.98 50.06 175.173 49.9533 174.4 49.74C173.627 49.5267 172.94 49.2 172.34 48.76C171.753 48.3067 171.287 47.7467 170.94 47.08C170.593 46.4133 170.42 45.6333 170.42 44.74C170.42 43.86 170.593 43.0867 170.94 42.42C171.287 41.74 171.753 41.1733 172.34 40.72C172.94 40.2667 173.627 39.9267 174.4 39.7C175.173 39.4733 175.98 39.36 176.82 39.36C177.5 39.36 178.113 39.4133 178.66 39.52C179.22 39.6267 179.707 39.74 180.12 39.86C180.533 39.98 180.86 40.0933 181.1 40.2C181.34 40.3067 181.487 40.36 181.54 40.36C181.607 40.36 181.66 40.3267 181.7 40.26C181.753 40.1933 181.793 40.14 181.82 40.1L182.12 40.34L180.56 42.76L180.36 42.62C180.36 42.58 180.353 42.54 180.34 42.5C180.34 42.46 180.333 42.4133 180.32 42.36C180.293 42.2133 180.16 42.0667 179.92 41.92C179.68 41.76 179.38 41.62 179.02 41.5C178.673 41.38 178.3 41.28 177.9 41.2C177.513 41.12 177.153 41.08 176.82 41.08C176.26 41.08 175.72 41.16 175.2 41.32C174.693 41.48 174.247 41.7133 173.86 42.02C173.487 42.3267 173.187 42.7067 172.96 43.16C172.733 43.6 172.62 44.1067 172.62 44.68C172.62 45.2533 172.733 45.7667 172.96 46.22C173.187 46.66 173.487 47.0333 173.86 47.34C174.247 47.6467 174.693 47.88 175.2 48.04C175.72 48.2 176.26 48.28 176.82 48.28C177.247 48.28 177.693 48.2333 178.16 48.14C178.627 48.0333 179.053 47.9067 179.44 47.76C179.827 47.6 180.147 47.4267 180.4 47.24C180.667 47.04 180.8 46.8533 180.8 46.68C180.8 46.5867 180.773 46.5067 180.72 46.44L181 46.28L182.32 48.4L182.16 48.56ZM185.433 49.64C185.78 49.64 185.953 49.52 185.953 49.28V40.2C185.953 39.96 185.78 39.84 185.433 39.84V39.48H188.753V39.84C188.407 39.84 188.233 39.96 188.233 40.2V49.28C188.233 49.52 188.407 49.64 188.753 49.64V50H185.433V49.64ZM191.154 47.08L191.474 47.2C191.514 47.4133 191.614 47.6 191.774 47.76C191.947 47.92 192.154 48.06 192.394 48.18C192.634 48.2867 192.894 48.3733 193.174 48.44C193.454 48.4933 193.72 48.52 193.974 48.52C194.774 48.52 195.354 48.4067 195.714 48.18C196.087 47.94 196.274 47.5 196.274 46.86V40.44C196.274 40.2533 196.194 40.1067 196.034 40C195.874 39.8933 195.72 39.84 195.574 39.84V39.48H199.374V39.84C199.147 39.84 198.954 39.8933 198.794 40C198.634 40.1067 198.554 40.2533 198.554 40.44V47.04C198.554 47.56 198.44 48.0133 198.214 48.4C198 48.7867 197.694 49.1067 197.294 49.36C196.894 49.6133 196.42 49.7933 195.874 49.9C195.327 50.0067 194.72 50.06 194.054 50.06C193.64 50.06 193.26 50.0333 192.914 49.98C192.567 49.9267 192.254 49.8667 191.974 49.8C191.707 49.72 191.467 49.6467 191.254 49.58C191.054 49.5133 190.887 49.48 190.754 49.48C190.607 49.48 190.487 49.56 190.394 49.72L190.094 49.52L191.154 47.08ZM208.394 45.92L206.714 42.2L204.834 45.92H208.394ZM200.854 49.64C201.027 49.6133 201.16 49.5267 201.254 49.38C201.36 49.2333 201.46 49.0667 201.554 48.88L205.254 41.1C205.347 40.9267 205.427 40.7667 205.494 40.62C205.574 40.4733 205.614 40.3467 205.614 40.24C205.614 40.1067 205.567 40.0133 205.474 39.96C205.38 39.9067 205.28 39.8667 205.174 39.84V39.48H208.554V39.84C208.46 39.8667 208.367 39.9067 208.274 39.96C208.18 40 208.134 40.0933 208.134 40.24C208.134 40.3467 208.154 40.4533 208.194 40.56C208.247 40.6667 208.32 40.8067 208.414 40.98L212.574 49.12C212.64 49.2667 212.727 49.3733 212.834 49.44C212.954 49.5067 213.087 49.5733 213.234 49.64V50H209.714V49.64C209.767 49.64 209.834 49.62 209.914 49.58C209.994 49.54 210.034 49.48 210.034 49.4C210.034 49.2667 209.98 49.0933 209.874 48.88L209.114 47.4H204.234L203.514 48.82C203.38 49.1 203.314 49.3 203.314 49.42C203.314 49.5667 203.44 49.64 203.694 49.64V50H200.854V49.64ZM215.593 49.64C215.847 49.64 215.973 49.52 215.973 49.28V40.2C215.973 39.96 215.847 39.84 215.593 39.84V39.48H219.013V39.84C218.907 39.84 218.853 39.9067 218.853 40.04C218.853 40.1467 218.987 40.3333 219.253 40.6L224.993 46.56V40.2C224.993 39.96 224.82 39.84 224.473 39.84V39.48H227.493V39.84C227.24 39.84 227.113 39.96 227.113 40.2V49.28C227.113 49.52 227.24 49.64 227.493 49.64V50H224.253V49.64C224.427 49.64 224.513 49.58 224.513 49.46C224.513 49.3667 224.407 49.2133 224.193 49L218.093 42.64V49.28C218.093 49.52 218.247 49.64 218.553 49.64V50H215.593V49.64ZM222.593 38.7H220.913L222.733 35.82H225.433L222.593 38.7ZM231.84 46.7L232.04 46.8C232.04 46.92 232.067 47.0267 232.12 47.12C232.213 47.28 232.393 47.44 232.66 47.6C232.94 47.7467 233.253 47.88 233.6 48C233.96 48.12 234.333 48.22 234.72 48.3C235.107 48.3667 235.453 48.4 235.76 48.4C235.987 48.4 236.28 48.3867 236.64 48.36C237 48.32 237.353 48.2467 237.7 48.14C238.047 48.0333 238.347 47.8867 238.6 47.7C238.853 47.5133 238.98 47.2667 238.98 46.96C238.98 46.6533 238.86 46.4267 238.62 46.28C238.393 46.1333 238.087 46.0267 237.7 45.96C237.327 45.8933 236.893 45.8533 236.4 45.84C235.92 45.8133 235.427 45.78 234.92 45.74C234.413 45.7 233.913 45.6333 233.42 45.54C232.94 45.4467 232.507 45.2933 232.12 45.08C231.747 44.8533 231.44 44.5533 231.2 44.18C230.973 43.7933 230.86 43.2933 230.86 42.68C230.86 42.2667 230.953 41.86 231.14 41.46C231.34 41.06 231.64 40.7067 232.04 40.4C232.44 40.0933 232.947 39.8467 233.56 39.66C234.173 39.46 234.893 39.36 235.72 39.36C236.427 39.36 237.04 39.4133 237.56 39.52C238.08 39.6267 238.527 39.74 238.9 39.86C239.287 39.98 239.607 40.0933 239.86 40.2C240.127 40.3067 240.347 40.36 240.52 40.36C240.707 40.36 240.84 40.32 240.92 40.24L241.16 40.4L239.78 42.9L239.58 42.82C239.553 42.6333 239.5 42.48 239.42 42.36C239.313 42.2 239.133 42.0467 238.88 41.9C238.64 41.74 238.353 41.6 238.02 41.48C237.687 41.36 237.327 41.2667 236.94 41.2C236.553 41.12 236.167 41.08 235.78 41.08C235.487 41.08 235.18 41.1067 234.86 41.16C234.553 41.2 234.273 41.2667 234.02 41.36C233.767 41.4533 233.553 41.58 233.38 41.74C233.22 41.8867 233.14 42.0733 233.14 42.3C233.14 42.62 233.253 42.86 233.48 43.02C233.72 43.18 234.027 43.3 234.4 43.38C234.787 43.46 235.22 43.5133 235.7 43.54C236.193 43.5667 236.693 43.6 237.2 43.64C237.707 43.68 238.2 43.7533 238.68 43.86C239.173 43.9533 239.607 44.1133 239.98 44.34C240.367 44.5533 240.673 44.8467 240.9 45.22C241.14 45.5933 241.26 46.08 241.26 46.68C241.26 47.3733 241.073 47.94 240.7 48.38C240.34 48.82 239.887 49.1667 239.34 49.42C238.793 49.6733 238.2 49.8467 237.56 49.94C236.933 50.02 236.347 50.06 235.8 50.06C235.04 50.06 234.4 50.02 233.88 49.94C233.373 49.8467 232.947 49.74 232.6 49.62C232.267 49.4867 232 49.3733 231.8 49.28C231.6 49.1733 231.427 49.12 231.28 49.12C231.187 49.12 231.1 49.1733 231.02 49.28L230.74 49.12L231.84 46.7ZM246.86 49.28C246.86 49.4 246.9 49.4933 246.98 49.56C247.06 49.6133 247.153 49.64 247.26 49.64V50H244.14V49.64C244.433 49.64 244.58 49.52 244.58 49.28V40.2C244.58 39.96 244.433 39.84 244.14 39.84V39.48H247.26V39.84C247.153 39.84 247.06 39.8733 246.98 39.94C246.9 39.9933 246.86 40.08 246.86 40.2V44L251 40.74C251.186 40.58 251.333 40.4533 251.44 40.36C251.546 40.2533 251.6 40.1667 251.6 40.1C251.6 40.0067 251.566 39.94 251.5 39.9C251.446 39.86 251.38 39.84 251.3 39.84V39.48H255.5V39.84C255.26 39.84 255.02 39.94 254.78 40.14L250.18 43.8L254.38 48.66C254.553 48.86 254.753 49.06 254.98 49.26C255.22 49.4467 255.453 49.5733 255.68 49.64V50H251.98V49.64C252.153 49.64 252.24 49.5933 252.24 49.5C252.24 49.4333 252.146 49.2867 251.96 49.06L248.54 45.12L246.86 46.42V49.28ZM263.98 45.92L262.3 42.2L260.42 45.92H263.98ZM256.44 49.64C256.613 49.6133 256.746 49.5267 256.84 49.38C256.946 49.2333 257.046 49.0667 257.14 48.88L260.84 41.1C260.933 40.9267 261.013 40.7667 261.08 40.62C261.16 40.4733 261.2 40.3467 261.2 40.24C261.2 40.1067 261.153 40.0133 261.06 39.96C260.966 39.9067 260.866 39.8667 260.76 39.84V39.48H264.14V39.84C264.046 39.8667 263.953 39.9067 263.86 39.96C263.766 40 263.72 40.0933 263.72 40.24C263.72 40.3467 263.74 40.4533 263.78 40.56C263.833 40.6667 263.906 40.8067 264 40.98L268.16 49.12C268.226 49.2667 268.313 49.3733 268.42 49.44C268.54 49.5067 268.673 49.5733 268.82 49.64V50H265.3V49.64C265.353 49.64 265.42 49.62 265.5 49.58C265.58 49.54 265.62 49.48 265.62 49.4C265.62 49.2667 265.566 49.0933 265.46 48.88L264.7 47.4H259.82L259.1 48.82C258.966 49.1 258.9 49.3 258.9 49.42C258.9 49.5667 259.026 49.64 259.28 49.64V50H256.44V49.64Z" fill="#161722"/>
<defs>
<clipPath id="clip0_105_888">
<rect width="66" height="72" fill="white"/>
</clipPath>
</defs>
</svg>
