<svg width="68" height="68" viewBox="0 0 68 68" fill="none" xmlns="http://www.w3.org/2000/svg">
<path d="M57.9809 23.3233C58.1308 27.6617 57.3866 31.1263 56.206 34.5008C52.6642 44.6169 47.262 53.7842 39.9965 61.9827C39.0006 63.1067 37.9137 64.1557 36.693 65.0669C35.0359 66.306 33.9784 66.316 32.3401 65.0669C30.2225 63.4497 28.461 61.5121 26.8361 59.4719C20.4808 51.4811 15.4666 42.837 12.4148 33.2542C10.9826 28.7581 10.5569 24.1995 11.5126 19.5583C13.2929 10.9217 21.1152 3.85471 30.351 2.33767C42.1702 0.397567 53.3469 7.00894 56.8565 17.2552C57.6168 19.4757 57.9648 21.7487 57.9782 23.3183L57.9809 23.3233ZM34.5219 5.90496C34.0775 5.90496 33.6304 5.87742 33.186 5.90997C32.498 5.96254 31.8073 6.01511 31.1327 6.13527C24.1269 7.35691 19.0806 10.9042 16.4812 17.1926C14.5698 21.8188 14.6421 26.5477 16.0101 31.3015C17.6966 37.1669 20.3442 42.6493 23.5138 47.9264C26.2471 52.4775 29.3257 56.8008 33.1566 60.6234C33.5796 61.0465 33.9865 61.7549 34.4978 61.7574C35.0626 61.7624 35.4588 61.0365 35.8818 60.5934C40.9655 55.2562 45.04 49.2882 48.4024 42.8896C51.0955 37.7652 53.1622 32.4481 53.8127 26.7179C54.241 22.9253 53.7324 19.2554 51.9254 15.8308C48.381 9.11176 42.3067 6.1603 34.5219 5.90246V5.90496Z" fill="#83CBCB"/>
<path d="M34.5087 34.0308C27.9248 34.0358 23.0087 29.7345 23 23.9674C22.9942 18.5274 28.2363 14.0105 34.5291 14.0308C40.8161 14.0511 45.9942 18.5325 46 23.9547C46.0058 29.7219 41.0955 34.0282 34.5058 34.0308H34.5087ZM41.6369 24.0993C41.6165 20.5183 38.5458 17.8705 34.4389 17.8959C30.3756 17.9187 27.3602 20.5842 27.366 24.1449C27.3718 27.5281 30.623 30.328 34.5262 30.3128C38.4381 30.2976 41.6544 27.4875 41.6369 24.0993Z" fill="#83CBCB"/>
</svg>
