<svg width="68" height="68" viewBox="0 0 68 68" fill="none" xmlns="http://www.w3.org/2000/svg">
<path d="M36.4375 21.9585C34.6771 21.9585 33.25 23.3856 33.25 25.146C33.25 26.3196 32.2986 27.271 31.125 27.271C29.9514 27.271 29 26.3196 29 25.146C29 21.0384 32.33 17.7085 36.4375 17.7085C40.545 17.7085 43.875 21.0384 43.875 25.146C43.875 27.8755 42.4034 30.259 40.2209 31.5505C39.6633 31.8803 39.2031 32.2404 38.9034 32.5937C38.6121 32.9365 38.5625 33.1604 38.5625 33.2918V36.8335C38.5625 38.0071 37.6111 38.9585 36.4375 38.9585C35.2639 38.9585 34.3125 38.0071 34.3125 36.8335V33.2918C34.3125 31.8584 34.9401 30.6954 35.6629 29.8437C36.3769 29.0022 37.2674 28.3596 38.0567 27.8926C39 27.3344 39.625 26.3121 39.625 25.146C39.625 23.3856 38.1978 21.9585 36.4375 21.9585Z" fill="#83CBCB"/>
<path d="M36.4376 48.1667C38.0024 48.1667 39.2709 46.8982 39.2709 45.3333C39.2709 43.7685 38.0024 42.5 36.4376 42.5C34.8727 42.5 33.6042 43.7685 33.6042 45.3333C33.6042 46.8982 34.8727 48.1667 36.4376 48.1667Z" fill="#83CBCB"/>
<path fill-rule="evenodd" clip-rule="evenodd" d="M37.3585 4H37.6415C43.332 3.99997 47.7914 3.99994 51.2709 4.52954C54.8322 5.0716 57.6427 6.20278 59.8485 8.69993C62.0543 11.1971 63.0534 14.3785 63.5324 18.4104C64 22.3494 64 27.3979 64 33.8398V34.1602C64 40.6022 64 45.6506 63.5324 49.5897C63.0534 53.6214 62.0543 56.8031 59.8485 59.3002C57.6427 61.7973 54.8322 62.9284 51.2709 63.4706C47.7914 64 43.332 64 37.6415 64H37.3585C31.6681 64 27.2086 64 23.7291 63.4706C20.1677 62.9284 17.3574 61.7973 15.1516 59.3002C12.9458 56.8031 11.9466 53.6214 11.4678 49.5897C11 45.6506 11 40.6022 11 34.1602V33.8398C11 27.3979 11 22.3494 11.4678 18.4104C11.9466 14.3785 12.9458 11.1971 15.1516 8.69993C17.3574 6.20278 20.1677 5.0716 23.7291 4.52954C27.2086 3.99994 31.6681 3.99997 37.3585 4ZM24.2218 8.67824C21.0704 9.15791 19.1705 10.0702 17.7663 11.6599C16.362 13.2496 15.5562 15.4005 15.1324 18.9681C14.7016 22.596 14.6977 27.3631 14.6977 34C14.6977 40.6368 14.7016 45.4039 15.1324 49.0318C15.5562 52.5994 16.362 54.7502 17.7663 56.3401C19.1705 57.93 21.0704 58.8422 24.2218 59.3217C27.4265 59.8095 31.6374 59.8139 37.5 59.8139C43.3625 59.8139 47.5735 59.8095 50.7781 59.3217C53.9295 58.8422 55.8294 57.93 57.2337 56.3401C58.6381 54.7502 59.444 52.5994 59.8675 49.0318C60.2984 45.4039 60.3023 40.6368 60.3023 34C60.3023 27.3631 60.2984 22.596 59.8675 18.9681C59.444 15.4005 58.6381 13.2496 57.2337 11.6599C55.8294 10.0702 53.9295 9.15791 50.7781 8.67824C47.5735 8.19048 43.3625 8.18605 37.5 8.18605C31.6374 8.18605 27.4265 8.19048 24.2218 8.67824Z" fill="#83CBCB"/>
</svg>
