<svg width="81" height="60" viewBox="0 0 81 60" fill="none" xmlns="http://www.w3.org/2000/svg">
<path d="M33.4247 14.3426C33.4247 10.3586 31.9608 6.93227 29.0331 4.06374C26.2681 1.35458 22.7711 0 18.5422 0C12.6867 0 8.13253 1.99203 4.87952 5.9761C1.62651 10.1195 0 14.9004 0 20.3187C0 28.6056 2.52108 36.0956 7.56325 42.7888C12.6054 49.6414 18.3795 55.3785 24.8855 60L33.1807 51.8725C31.0663 49.8008 28.5452 47.251 25.6175 44.2231C22.6898 41.1952 21.2259 38.0876 21.2259 34.9004C21.2259 32.8287 22.2018 30.996 24.1536 29.4024C26.2681 27.8088 28.3012 25.8964 30.253 23.6653C32.3675 21.4343 33.4247 18.3267 33.4247 14.3426ZM81 14.3426C81 10.3586 79.5361 6.93227 76.6084 4.06374C73.8434 1.35458 70.3464 0 66.1175 0C60.262 0 55.7078 1.99203 52.4548 5.9761C49.2018 10.1195 47.5753 14.9004 47.5753 20.3187C47.5753 28.6056 50.0964 36.0956 55.1386 42.7888C60.1807 49.6414 65.9548 55.3785 72.4608 60L80.756 51.8725C78.6416 49.8008 76.1205 47.251 73.1928 44.2231C70.2651 41.1952 68.8012 38.0876 68.8012 34.9004C68.8012 32.8287 69.7771 30.996 71.7289 29.4024C73.8434 27.8088 75.8765 25.8964 77.8283 23.6653C79.9428 21.4343 81 18.3267 81 14.3426Z" fill="#83CBCB"/>
</svg>
